<?xml version="1.0" encoding="UTF-8" standalone="no"?>
<!-- Created with Inkscape (http://www.inkscape.org/) -->

<svg
   xmlns:dc="http://purl.org/dc/elements/1.1/"
   xmlns:cc="http://creativecommons.org/ns#"
   xmlns:rdf="http://www.w3.org/1999/02/22-rdf-syntax-ns#"
   xmlns:svg="http://www.w3.org/2000/svg"
   xmlns="http://www.w3.org/2000/svg"
   xmlns:sodipodi="http://sodipodi.sourceforge.net/DTD/sodipodi-0.dtd"
   xmlns:inkscape="http://www.inkscape.org/namespaces/inkscape"
   width="16"
   height="16"
   id="svg2"
   version="1.1"
   inkscape:version="0.48.4 r9939"
   sodipodi:docname="folder.svg">
  <defs
     id="defs4" />
  <sodipodi:namedview
     id="base"
     pagecolor="#ffffff"
     bordercolor="#666666"
     borderopacity="1.0"
     inkscape:pageopacity="0.0"
     inkscape:pageshadow="2"
     inkscape:zoom="23.721824"
     inkscape:cx="6.1933888"
     inkscape:cy="7.8993688"
     inkscape:document-units="px"
     inkscape:current-layer="layer1"
     showgrid="true"
     inkscape:snap-bbox="true"
     inkscape:window-width="813"
     inkscape:window-height="746"
     inkscape:window-x="0"
     inkscape:window-y="16"
     inkscape:window-maximized="0">
    <inkscape:grid
       type="xygrid"
       id="grid2985"
       empspacing="2"
       visible="true"
       enabled="true"
       snapvisiblegridlinesonly="true"
       spacingx="1px"
       spacingy="1px" />
  </sodipodi:namedview>
  <metadata
     id="metadata7">
    <rdf:RDF>
      <cc:Work
         rdf:about="">
        <dc:format>image/svg+xml</dc:format>
        <dc:type
           rdf:resource="http://purl.org/dc/dcmitype/StillImage" />
        <dc:title />
      </cc:Work>
    </rdf:RDF>
  </metadata>
  <g
     inkscape:label="Layer 1"
     inkscape:groupmode="layer"
     id="layer1"
     transform="translate(0,-1036.3622)">
    <path
       style="fill:#4c5858;fill-opacity:1;stroke:none"
       d="m 0,14 2,2 13,0 1,0 0,-1 L 16,6 14,4 6,4 4,6 4,14 2,14 2,2 15,2 13,0 2,0 0,2 z"
       id="path2987"
       inkscape:connector-curvature="0"
       transform="translate(0,1036.3622)"
       sodipodi:nodetypes="ccccccccccccccccc" />
    <path
       sodipodi:type="arc"
       style="fill:#4c5858;fill-opacity:1;stroke:none"
       id="path3108"
       sodipodi:cx="0"
       sodipodi:cy="0"
       sodipodi:rx="2"
       sodipodi:ry="2"
       d="M 2,0 C 2,1.1045695 1.1045695,2 5.3589793e-8,2 L 0,0 z"
       transform="matrix(-1,0,0,-1,2,1038.3622)"
       sodipodi:start="0"
       sodipodi:end="1.5707963" />
    <path
       sodipodi:type="arc"
       style="fill:#4c5858;fill-opacity:1;stroke:none"
       id="path3108-4"
       sodipodi:cx="0"
       sodipodi:cy="0"
       sodipodi:rx="2"
       sodipodi:ry="2"
       d="M 2,0 C 2,1.1045695 1.1045695,2 5.3589793e-8,2 L 0,0 z"
       transform="matrix(-1,0,0,-1,6,1042.3622)"
       sodipodi:start="0"
       sodipodi:end="1.5707963" />
    <path
       sodipodi:type="arc"
       style="fill:#4c5858;fill-opacity:1;stroke:none"
       id="path3108-8"
       sodipodi:cx="0"
       sodipodi:cy="0"
       sodipodi:rx="2"
       sodipodi:ry="2"
       d="M 2,0 C 2,1.1045695 1.1045695,2 5.3589793e-8,2 L 0,0 z"
       transform="matrix(0.00804014,-0.99996768,0.99996768,0.00804014,12.991992,1038.3541)"
       sodipodi:start="0"
       sodipodi:end="1.5707963" />
    <path
       sodipodi:type="arc"
       style="fill:#4c5858;fill-opacity:1;stroke:none"
       id="path3108-8-1"
       sodipodi:cx="0"
       sodipodi:cy="0"
       sodipodi:rx="2"
       sodipodi:ry="2"
       d="M 2,0 C 2,1.1045695 1.1045695,2 5.3589793e-8,2 L 0,0 z"
       transform="matrix(0.00804014,-0.99996768,0.99996768,0.00804014,13.991992,1042.3541)"
       sodipodi:start="0"
       sodipodi:end="1.5707963" />
    <path
       sodipodi:type="arc"
       style="fill:#4c5858;fill-opacity:1;stroke:none"
       id="path3108-8-8"
       sodipodi:cx="0"
       sodipodi:cy="0"
       sodipodi:rx="2"
       sodipodi:ry="2"
       d="M 2,0 C 2,1.1045695 1.1045695,2 5.3589793e-8,2 L 0,0 z"
       transform="matrix(-0.00804014,0.99996768,-0.99996768,-0.00804014,1.9919934,1050.3702)"
       sodipodi:start="0"
       sodipodi:end="1.5707963" />
  </g>
</svg>
