<?xml version="1.0" encoding="UTF-8" standalone="no"?>
<!-- Created with Inkscape (http://www.inkscape.org/) -->

<svg
   xmlns:dc="http://purl.org/dc/elements/1.1/"
   xmlns:cc="http://creativecommons.org/ns#"
   xmlns:rdf="http://www.w3.org/1999/02/22-rdf-syntax-ns#"
   xmlns:svg="http://www.w3.org/2000/svg"
   xmlns="http://www.w3.org/2000/svg"
   xmlns:sodipodi="http://sodipodi.sourceforge.net/DTD/sodipodi-0.dtd"
   xmlns:inkscape="http://www.inkscape.org/namespaces/inkscape"
   width="16"
   height="16"
   id="svg2"
   version="1.1"
   inkscape:version="0.48.4 r9939"
   sodipodi:docname="gnome-mime-application-vnd.rn-realmedia.svg">
  <defs
     id="defs4" />
  <sodipodi:namedview
     id="base"
     pagecolor="#ffffff"
     bordercolor="#666666"
     borderopacity="1.0"
     inkscape:pageopacity="0.0"
     inkscape:pageshadow="2"
     inkscape:zoom="5.6"
     inkscape:cx="-5.4950799"
     inkscape:cy="16.662438"
     inkscape:document-units="px"
     inkscape:current-layer="layer1"
     showgrid="true"
     inkscape:snap-bbox="true"
     inkscape:window-width="802"
     inkscape:window-height="753"
     inkscape:window-x="0"
     inkscape:window-y="11"
     inkscape:window-maximized="0">
    <inkscape:grid
       type="xygrid"
       id="grid2985"
       empspacing="2"
       visible="true"
       enabled="true"
       snapvisiblegridlinesonly="true"
       spacingx="1px"
       spacingy="1px" />
  </sodipodi:namedview>
  <metadata
     id="metadata7">
    <rdf:RDF>
      <cc:Work
         rdf:about="">
        <dc:format>image/svg+xml</dc:format>
        <dc:type
           rdf:resource="http://purl.org/dc/dcmitype/StillImage" />
        <dc:title></dc:title>
      </cc:Work>
    </rdf:RDF>
  </metadata>
  <g
     inkscape:label="Layer 1"
     inkscape:groupmode="layer"
     id="layer1"
     transform="translate(0,-1036.3622)">
    <rect
       style="fill:#4c5858;fill-opacity:1;stroke:none"
       id="rect8208"
       width="12"
       height="14"
       x="1"
       y="1"
       transform="translate(0,1036.3622)"
       ry="1.7382812e-05" />
    <path
       style="fill:#4c5858;fill-opacity:1;stroke:none"
       d="M 2,0 0,2 0,14 2,16 12,16 14,14 14,2 12,0 z M 2,2 12,2 12,14 2,14 z"
       transform="translate(0,1036.3622)"
       id="path4050"
       inkscape:connector-curvature="0"
       sodipodi:nodetypes="cccccccccccccc" />
    <path
       sodipodi:type="arc"
       style="fill:#4c5858;fill-opacity:1;stroke:none"
       id="path3108"
       sodipodi:cx="0"
       sodipodi:cy="0"
       sodipodi:rx="2"
       sodipodi:ry="2"
       d="M 2,0 C 2,1.1045695 1.1045695,2 5.3589793e-8,2 L 0,0 z"
       transform="matrix(-1,0,0,-1,2,1038.3622)"
       sodipodi:start="0"
       sodipodi:end="1.5707963" />
    <path
       sodipodi:type="arc"
       style="fill:#4c5858;fill-opacity:1;stroke:none"
       id="path3108-4"
       sodipodi:cx="0"
       sodipodi:cy="0"
       sodipodi:rx="2"
       sodipodi:ry="2"
       d="M 2,0 A 2,2 0 0 1 5.3589793e-8,2 L 0,0 z"
       transform="matrix(0,-1,1,0,12,1038.3622)"
       sodipodi:start="0"
       sodipodi:end="1.5707963" />
    <path
       sodipodi:type="arc"
       style="fill:#4c5858;fill-opacity:1;stroke:none"
       id="path3108-3"
       sodipodi:cx="0"
       sodipodi:cy="0"
       sodipodi:rx="2"
       sodipodi:ry="2"
       d="M 2,0 A 2,2 0 0 1 5.3589793e-8,2 L 0,0 z"
       transform="translate(12,1050.3622)"
       sodipodi:start="0"
       sodipodi:end="1.5707963" />
    <path
       sodipodi:type="arc"
       style="fill:#4c5858;fill-opacity:1;stroke:none"
       id="path3108-43"
       sodipodi:cx="0"
       sodipodi:cy="0"
       sodipodi:rx="2"
       sodipodi:ry="2"
       d="M 2,0 C 2,1.1045695 1.1045695,2 5.3589793e-8,2 L 0,0 z"
       transform="matrix(0,1,-1,0,2,1050.3622)"
       sodipodi:start="0"
       sodipodi:end="1.5707963" />
    <path
       transform="translate(0,1036.3622)"
       style="fill:#ffffff;fill-opacity:1;stroke:none"
       d="M 2.0000149,2 3.9999851,2 C 3.9999934,2 4,2.0000066 4,2.0000149 L 4,3.9999851 C 4,3.9999934 3.9999934,4 3.9999851,4 L 2.0000149,4 C 2.0000066,4 2,3.9999934 2,3.9999851 L 2,2.0000149 C 2,2.0000066 2.0000066,2 2.0000149,2 z"
       id="rect9116" />
    <path
       inkscape:connector-curvature="0"
       style="fill:#ffffff;fill-opacity:1;stroke:none"
       d="m 6.0000149,1038.3622 1.9999702,0 c 8.3e-6,0 1.49e-5,0 1.49e-5,0 l 0,2 c 0,0 -6.6e-6,0 -1.49e-5,0 l -1.9999702,0 c -8.3e-6,0 -1.49e-5,0 -1.49e-5,0 l 0,-2 c 0,0 6.6e-6,0 1.49e-5,0 z"
       id="rect9116-6" />
    <path
       inkscape:connector-curvature="0"
       style="fill:#ffffff;fill-opacity:1;stroke:none"
       d="m 10.000015,1038.3622 1.99997,0 c 8e-6,0 1.5e-5,0 1.5e-5,0 l 0,2 c 0,0 -7e-6,0 -1.5e-5,0 l -1.99997,0 c -8e-6,0 -1.5e-5,0 -1.5e-5,0 l 0,-2 c 0,0 7e-6,0 1.5e-5,0 z"
       id="rect9116-4" />
    <path
       inkscape:connector-curvature="0"
       style="fill:#ffffff;fill-opacity:1;stroke:none"
       d="m 2.0000149,1048.3622 1.9999702,0 c 8.3e-6,0 1.49e-5,0 1.49e-5,0 l 0,2 c 0,0 -6.6e-6,0 -1.49e-5,0 l -1.9999702,0 c -8.3e-6,0 -1.49e-5,0 -1.49e-5,0 l 0,-2 c 0,0 6.6e-6,0 1.49e-5,0 z"
       id="rect9116-3" />
    <path
       inkscape:connector-curvature="0"
       style="fill:#ffffff;fill-opacity:1;stroke:none"
       d="m 6.0000149,1048.3622 1.9999702,0 c 8.3e-6,0 1.49e-5,0 1.49e-5,0 l 0,2 c 0,0 -6.6e-6,0 -1.49e-5,0 l -1.9999702,0 c -8.3e-6,0 -1.49e-5,0 -1.49e-5,0 l 0,-2 c 0,0 6.6e-6,0 1.49e-5,0 z"
       id="rect9116-1" />
    <path
       inkscape:connector-curvature="0"
       style="fill:#ffffff;fill-opacity:1;stroke:none"
       d="m 10.000015,1048.3622 1.99997,0 c 8e-6,0 1.5e-5,0 1.5e-5,0 l 0,2 c 0,0 -7e-6,0 -1.5e-5,0 l -1.99997,0 c -8e-6,0 -1.5e-5,0 -1.5e-5,0 l 0,-2 c 0,0 7e-6,0 1.5e-5,0 z"
       id="rect9116-9" />
  </g>
</svg>
