<?xml version="1.0" encoding="UTF-8" standalone="no"?>
<!-- Created with Inkscape (http://www.inkscape.org/) -->

<svg
   xmlns:dc="http://purl.org/dc/elements/1.1/"
   xmlns:cc="http://creativecommons.org/ns#"
   xmlns:rdf="http://www.w3.org/1999/02/22-rdf-syntax-ns#"
   xmlns:svg="http://www.w3.org/2000/svg"
   xmlns="http://www.w3.org/2000/svg"
   xmlns:xlink="http://www.w3.org/1999/xlink"
   xmlns:sodipodi="http://sodipodi.sourceforge.net/DTD/sodipodi-0.dtd"
   xmlns:inkscape="http://www.inkscape.org/namespaces/inkscape"
   width="16"
   height="16"
   id="svg2"
   version="1.1"
   inkscape:version="0.48.4 r9939"
   sodipodi:docname="text-x-python.svg">
  <defs
     id="defs4">
    <linearGradient
       id="linearGradient4689">
      <stop
         style="stop-color:#5a9fd4;stop-opacity:1;"
         offset="0"
         id="stop4691" />
      <stop
         style="stop-color:#306998;stop-opacity:1;"
         offset="1"
         id="stop4693" />
    </linearGradient>
    <linearGradient
       inkscape:collect="always"
       xlink:href="#linearGradient4671"
       id="linearGradient1475"
       gradientUnits="userSpaceOnUse"
       gradientTransform="matrix(0.562541,0,0,0.567972,-9.399749,-5.305317)"
       x1="150.96111"
       y1="192.35176"
       x2="112.03144"
       y2="137.27299" />
    <linearGradient
       id="linearGradient4671">
      <stop
         style="stop-color:#ffd43b;stop-opacity:1;"
         offset="0"
         id="stop4673" />
      <stop
         style="stop-color:#ffe873;stop-opacity:1"
         offset="1"
         id="stop4675" />
    </linearGradient>
  </defs>
  <sodipodi:namedview
     id="base"
     pagecolor="#ffffff"
     bordercolor="#666666"
     borderopacity="1.0"
     inkscape:pageopacity="0.0"
     inkscape:pageshadow="2"
     inkscape:zoom="31.678384"
     inkscape:cx="5.7327449"
     inkscape:cy="8.3890735"
     inkscape:document-units="px"
     inkscape:current-layer="g5363"
     showgrid="true"
     inkscape:snap-bbox="true"
     inkscape:window-width="929"
     inkscape:window-height="753"
     inkscape:window-x="0"
     inkscape:window-y="11"
     inkscape:window-maximized="0">
    <inkscape:grid
       type="xygrid"
       id="grid2985"
       empspacing="2"
       visible="true"
       enabled="true"
       snapvisiblegridlinesonly="true"
       spacingx="1px"
       spacingy="1px" />
  </sodipodi:namedview>
  <metadata
     id="metadata7">
    <rdf:RDF>
      <cc:Work
         rdf:about="">
        <dc:format>image/svg+xml</dc:format>
        <dc:type
           rdf:resource="http://purl.org/dc/dcmitype/StillImage" />
        <dc:title />
      </cc:Work>
    </rdf:RDF>
  </metadata>
  <g
     inkscape:label="Layer 1"
     inkscape:groupmode="layer"
     id="layer1"
     transform="translate(0,-1036.3622)">
    <path
       style="fill:#ffffff;fill-opacity:1;stroke:none"
       d="M 1.0000174,1 12.999983,1 c 9e-6,0 1.7e-5,7.8e-6 1.7e-5,1.74e-5 l 0,13.9999656 c 0,9e-6 -8e-6,1.7e-5 -1.7e-5,1.7e-5 L 1.0000174,15 C 1.0000078,15 1,14.999992 1,14.999983 L 1,1.0000174 C 1,1.0000078 1.0000078,1 1.0000174,1 z"
       id="rect8208"
       transform="translate(0,1036.3622)" />
    <path
       style="fill:#4c5858;fill-opacity:1;stroke:none"
       d="M 2,0 0,2 0,14 2,16 12,16 14,14 14,2 12,0 z M 2,2 12,2 12,14 2,14 z"
       transform="translate(0,1036.3622)"
       id="path4050"
       inkscape:connector-curvature="0"
       sodipodi:nodetypes="cccccccccccccc" />
    <path
       transform="matrix(-1,0,0,-1,2,1038.3622)"
       style="fill:#4c5858;fill-opacity:1;stroke:none"
       d="M 2,0 C 2,1.1045695 1.1045695,2 5.3589793e-8,2 L 0,0 z"
       id="path3108" />
    <path
       style="fill:#4c5858;fill-opacity:1;stroke:none"
       d="M 2,0 C 2,1.1045695 1.1045695,2 5.3589793e-8,2 L 0,0 z"
       id="path3108-4"
       transform="matrix(0,-1,1,0,12,1038.3622)" />
    <path
       style="fill:#4c5858;fill-opacity:1;stroke:none"
       d="M 2,0 C 2,1.1045695 1.1045695,2 5.3589793e-8,2 L 0,0 z"
       id="path3108-3"
       transform="translate(12,1050.3622)" />
    <path
       transform="matrix(0,1,-1,0,2,1050.3622)"
       style="fill:#4c5858;fill-opacity:1;stroke:none"
       d="M 2,0 C 2,1.1045695 1.1045695,2 5.3589793e-8,2 L 0,0 z"
       id="path3108-43" />
    <g
       transform="matrix(0.07196746,0,0,0.07196746,2.597603,1038.8135)"
       id="g5363">
      <path
         inkscape:connector-curvature="0"
         id="path1948"
         d="m 60.510156,6.3979729 c -4.583653,0.021298 -8.960939,0.4122177 -12.8125,1.09375 C 36.35144,9.4962267 34.291407,13.691825 34.291406,21.429223 l 0,10.21875 26.8125,0 0,3.40625 -26.8125,0 -10.0625,0 c -7.792459,0 -14.6157592,4.683717 -16.7500002,13.59375 -2.46182,10.212966 -2.5710151,16.586023 0,27.25 1.9059283,7.937852 6.4575432,13.593748 14.2500002,13.59375 l 9.21875,0 0,-12.25 c 0,-8.849902 7.657144,-16.656248 16.75,-16.65625 l 26.78125,0 c 7.454951,0 13.406253,-6.138164 13.40625,-13.625 l 0,-25.53125 c 0,-7.266339 -6.12998,-12.7247775 -13.40625,-13.9375001 -4.605987,-0.7667253 -9.385097,-1.1150483 -13.96875,-1.09375 z m -14.5,8.2187501 c 2.769547,0 5.03125,2.298646 5.03125,5.125 -2e-6,2.816336 -2.261703,5.09375 -5.03125,5.09375 -2.779476,-1e-6 -5.03125,-2.277415 -5.03125,-5.09375 -1e-6,-2.826353 2.251774,-5.125 5.03125,-5.125 z"
         style="fill:#306998;fill-opacity:1" />
      <path
         inkscape:connector-curvature="0"
         id="path1950"
         d="m 91.228906,35.054223 0,11.90625 c 0,9.230755 -7.825895,16.999999 -16.75,17 l -26.78125,0 c -7.335833,0 -13.406249,6.278483 -13.40625,13.625 l 0,25.531247 c 0,7.26634 6.318588,11.54032 13.40625,13.625 8.487331,2.49561 16.626237,2.94663 26.78125,0 6.750155,-1.95439 13.406253,-5.88761 13.40625,-13.625 l 0,-10.218747 -26.78125,0 0,-3.40625 26.78125,0 13.406254,0 c 7.79246,0 10.69625,-5.435408 13.40624,-13.59375 2.79933,-8.398886 2.68022,-16.475776 0,-27.25 -1.92578,-7.757441 -5.60387,-13.59375 -13.40624,-13.59375 l -10.062504,0 z m -15.0625,64.65625 c 2.779478,3e-6 5.03125,2.277417 5.03125,5.093747 -2e-6,2.82635 -2.251775,5.125 -5.03125,5.125 -2.76955,0 -5.03125,-2.29865 -5.03125,-5.125 2e-6,-2.81633 2.261697,-5.093747 5.03125,-5.093747 z"
         style="fill:#ffc802;fill-opacity:1" />
    </g>
  </g>
</svg>
